TITLE ""
FILE "P1Q_j_1791-1800.mp3" MP3
  TRACK 01 AUDIO
    TITLE "P1Q_j_1791-1800_01"
    INDEX 01 00:00:00
  TRACK 02 AUDIO
    TITLE "P1Q_j_1791-1800_02"
    INDEX 01 00:00:12
  TRACK 03 AUDIO
    TITLE "P1Q_j_1791-1800_03"
    INDEX 01 00:01:49
  TRACK 04 AUDIO
    TITLE "P1Q_j_1791-1800_04"
    INDEX 01 00:01:69
  TRACK 05 AUDIO
    TITLE "P1Q_j_1791-1800_05"
    INDEX 01 00:06:09
  TRACK 06 AUDIO
    TITLE "P1Q_j_1791-1800_06"
    INDEX 01 00:06:27
  TRACK 07 AUDIO
    TITLE "P1Q_j_1791-1800_07"
    INDEX 01 00:12:70
  TRACK 08 AUDIO
    TITLE "P1Q_j_1791-1800_08"
    INDEX 01 00:13:42
  TRACK 09 AUDIO
    TITLE "P1Q_j_1791-1800_09"
    INDEX 01 00:15:02
  TRACK 10 AUDIO
    TITLE "P1Q_j_1791-1800_10"
    INDEX 01 00:15:22
  TRACK 11 AUDIO
    TITLE "P1Q_j_1791-1800_11"
    INDEX 01 00:19:41
  TRACK 12 AUDIO
    TITLE "P1Q_j_1791-1800_12"
    INDEX 01 00:19:61
  TRACK 13 AUDIO
    TITLE "P1Q_j_1791-1800_13"
    INDEX 01 00:23:70
  TRACK 14 AUDIO
    TITLE "P1Q_j_1791-1800_14"
    INDEX 01 00:24:40
  TRACK 15 AUDIO
    TITLE "P1Q_j_1791-1800_15"
    INDEX 01 00:25:71
  TRACK 16 AUDIO
    TITLE "P1Q_j_1791-1800_16"
    INDEX 01 00:26:16
  TRACK 17 AUDIO
    TITLE "P1Q_j_1791-1800_17"
    INDEX 01 00:33:33
  TRACK 18 AUDIO
    TITLE "P1Q_j_1791-1800_18"
    INDEX 01 00:33:53
  TRACK 19 AUDIO
    TITLE "P1Q_j_1791-1800_19"
    INDEX 01 00:37:57
  TRACK 20 AUDIO
    TITLE "P1Q_j_1791-1800_20"
    INDEX 01 00:38:30
  TRACK 21 AUDIO
    TITLE "P1Q_j_1791-1800_21"
    INDEX 01 00:39:48
  TRACK 22 AUDIO
    TITLE "P1Q_j_1791-1800_22"
    INDEX 01 00:39:69
  TRACK 23 AUDIO
    TITLE "P1Q_j_1791-1800_23"
    INDEX 01 00:44:04
  TRACK 24 AUDIO
    TITLE "P1Q_j_1791-1800_24"
    INDEX 01 00:44:23
  TRACK 25 AUDIO
    TITLE "P1Q_j_1791-1800_25"
    INDEX 01 00:48:19
  TRACK 26 AUDIO
    TITLE "P1Q_j_1791-1800_26"
    INDEX 01 00:48:64
  TRACK 27 AUDIO
    TITLE "P1Q_j_1791-1800_27"
    INDEX 01 00:50:22
  TRACK 28 AUDIO
    TITLE "P1Q_j_1791-1800_28"
    INDEX 01 00:50:42
  TRACK 29 AUDIO
    TITLE "P1Q_j_1791-1800_29"
    INDEX 01 00:57:38
  TRACK 30 AUDIO
    TITLE "P1Q_j_1791-1800_30"
    INDEX 01 00:57:57
  TRACK 31 AUDIO
    TITLE "P1Q_j_1791-1800_31"
    INDEX 01 01:02:13
  TRACK 32 AUDIO
    TITLE "P1Q_j_1791-1800_32"
    INDEX 01 01:02:60
  TRACK 33 AUDIO
    TITLE "P1Q_j_1791-1800_33"
    INDEX 01 01:04:12
  TRACK 34 AUDIO
    TITLE "P1Q_j_1791-1800_34"
    INDEX 01 01:04:36
  TRACK 35 AUDIO
    TITLE "P1Q_j_1791-1800_35"
    INDEX 01 01:09:33
  TRACK 36 AUDIO
    TITLE "P1Q_j_1791-1800_36"
    INDEX 01 01:09:53
  TRACK 37 AUDIO
    TITLE "P1Q_j_1791-1800_37"
    INDEX 01 01:15:30
  TRACK 38 AUDIO
    TITLE "P1Q_j_1791-1800_38"
    INDEX 01 01:16:02
  TRACK 39 AUDIO
    TITLE "P1Q_j_1791-1800_39"
    INDEX 01 01:17:27
  TRACK 40 AUDIO
    TITLE "P1Q_j_1791-1800_40"
    INDEX 01 01:17:46
  TRACK 41 AUDIO
    TITLE "P1Q_j_1791-1800_41"
    INDEX 01 01:22:47
  TRACK 42 AUDIO
    TITLE "P1Q_j_1791-1800_42"
    INDEX 01 01:22:67
  TRACK 43 AUDIO
    TITLE "P1Q_j_1791-1800_43"
    INDEX 01 01:27:04
  TRACK 44 AUDIO
    TITLE "P1Q_j_1791-1800_44"
    INDEX 01 01:27:49
  TRACK 45 AUDIO
    TITLE "P1Q_j_1791-1800_45"
    INDEX 01 01:29:00
  TRACK 46 AUDIO
    TITLE "P1Q_j_1791-1800_46"
    INDEX 01 01:29:22
  TRACK 47 AUDIO
    TITLE "P1Q_j_1791-1800_47"
    INDEX 01 01:31:52
  TRACK 48 AUDIO
    TITLE "P1Q_j_1791-1800_48"
    INDEX 01 01:31:72
  TRACK 49 AUDIO
    TITLE "P1Q_j_1791-1800_49"
    INDEX 01 01:36:08
  TRACK 50 AUDIO
    TITLE "P1Q_j_1791-1800_50"
    INDEX 01 01:36:53
  TRACK 51 AUDIO
    TITLE "P1Q_j_1791-1800_51"
    INDEX 01 01:38:15
  TRACK 52 AUDIO
    TITLE "P1Q_j_1791-1800_52"
    INDEX 01 01:38:35
  TRACK 53 AUDIO
    TITLE "P1Q_j_1791-1800_53"
    INDEX 01 01:41:19
  TRACK 54 AUDIO
    TITLE "P1Q_j_1791-1800_54"
    INDEX 01 01:41:37
  TRACK 55 AUDIO
    TITLE "P1Q_j_1791-1800_55"
    INDEX 01 01:45:70
  TRACK 56 AUDIO
    TITLE "P1Q_j_1791-1800_56"
    INDEX 01 01:46:40
  TRACK 57 AUDIO
    TITLE "P1Q_j_1791-1800_57"
    INDEX 01 01:47:71
  TRACK 58 AUDIO
    TITLE "P1Q_j_1791-1800_58"
    INDEX 01 01:48:15
  TRACK 59 AUDIO
    TITLE "P1Q_j_1791-1800_59"
    INDEX 01 01:52:45
  TRACK 60 AUDIO
    TITLE "P1Q_j_1791-1800_60"
    INDEX 01 01:52:62
  TRACK 61 AUDIO
    TITLE "P1Q_j_1791-1800_61"
    INDEX 01 01:57:42
